<svg xmlns="http://www.w3.org/2000/svg" version="1.0" width="480.000000pt" height="200.000000pt" viewBox="0 0 480.000000 200.000000" preserveAspectRatio="xMidYMid meet">

<g transform="translate(0.000000,200.000000) scale(0.100000,-0.100000)" fill="#538dd7" stroke="none">
<path d="M253 1812 c-100 -35 -171 -114 -193 -216 -8 -35 -10 -224 -8 -601 3 -535 4 -551 24 -596 31 -66 78 -114 142 -146 l57 -28 2120 0 2120 0 46 21 c66 31 114 78 146 142 l28 57 0 580 0 580 -28 57 c-32 64 -80 111 -146 142 l-46 21 -2105 2 c-2000 2 -2108 2 -2157 -15z m617 -230 c26 -19 92 -120 86 -131 -3 -4 -24 -5 -48 -3 -36 3 -48 9 -61 32 -21 36 -48 42 -82 20 -22 -15 -33 -16 -59 -8 -48 16 -52 25 -25 54 56 61 134 76 189 36z m541 -3 c58 -20 64 -31 40 -77 -20 -40 -21 -41 -48 -27 -29 15 -80 19 -107 9 -9 -3 -16 -17 -16 -29 0 -19 14 -30 75 -60 112 -56 149 -109 127 -184 -34 -111 -194 -146 -319 -69 -31 19 -32 21 -19 46 34 64 36 65 90 37 27 -14 59 -25 70 -25 26 0 66 27 66 44 0 19 -39 51 -91 75 -95 44 -130 118 -92 191 37 72 130 100 224 69z m398 -8 c6 -10 51 -118 100 -240 l90 -221 -59 0 -58 0 -18 45 -17 45 -91 0 -92 0 -14 -42 -15 -43 -57 -3 c-32 -2 -58 1 -58 5 0 7 114 293 175 441 13 29 18 32 59 32 34 0 48 -5 55 -19z m341 -222 l0 -240 -52 3 -53 3 -3 225 c-1 123 0 230 2 237 4 8 24 13 56 13 l50 0 0 -241z m415 222 c22 -10 49 -28 59 -40 20 -22 20 -22 -16 -57 l-35 -36 -27 25 c-33 31 -74 38 -118 20 -50 -21 -72 -58 -76 -128 -4 -72 19 -116 73 -142 47 -22 108 -5 130 37 8 16 15 31 15 35 0 3 -25 5 -55 5 l-55 0 0 45 0 45 110 0 110 0 0 -60 c0 -106 -61 -186 -159 -210 -155 -37 -291 77 -291 244 0 92 60 185 140 220 49 21 146 20 195 -3z m485 9 c90 -25 160 -127 160 -235 -1 -211 -238 -321 -395 -183 -100 88 -107 250 -16 351 62 69 155 94 251 67z m357 -14 c10 -13 52 -78 93 -144 41 -67 78 -121 81 -121 4 -1 7 63 7 142 l1 142 48 0 48 0 3 -237 2 -238 -52 0 -53 0 -90 141 c-49 77 -92 142 -95 144 -3 2 -4 -62 -2 -141 l3 -144 -55 0 -56 0 0 234 c0 256 -3 244 62 245 27 1 41 -5 55 -23z m-2703 -138 c-8 -15 -19 -39 -24 -53 -9 -25 -10 -25 -45 -8 -39 19 -41 26 -21 74 20 48 23 49 66 31 37 -17 38 -17 24 -44z m136 -2 c35 -73 40 -202 11 -294 -31 -95 -31 -95 -81 -87 -60 10 -76 30 -84 108 -12 117 20 242 77 305 30 32 48 24 77 -32z m107 -16 c23 0 25 -5 38 -82 l6 -38 -44 0 -44 0 -6 43 c-3 23 -9 53 -13 66 -6 22 -5 24 17 18 13 -4 34 -7 46 -7z m-316 -75 c27 -15 30 -20 28 -60 -2 -25 -7 -45 -12 -45 -5 0 -25 10 -44 21 -27 17 -33 26 -29 43 3 11 6 29 6 39 0 21 12 22 51 2z m353 -83 c2 -4 2 -27 -1 -50 l-6 -42 -44 0 c-37 0 -44 3 -39 16 3 9 6 31 6 50 0 33 1 34 39 34 22 0 42 -4 45 -8z m-365 -46 c34 -22 39 -30 43 -70 2 -26 1 -46 -2 -46 -3 0 -23 10 -45 23 -37 21 -40 26 -43 70 -2 26 -1 47 3 47 3 0 23 -11 44 -24z m327 -84 c22 -7 22 -8 5 -52 -16 -44 -17 -45 -56 -42 -22 2 -42 5 -44 7 -2 2 5 24 14 49 18 48 30 53 81 38z m457 -168 c26 -9 49 -20 52 -25 3 -4 -3 -26 -15 -48 l-20 -40 -35 14 c-44 19 -89 19 -105 0 -23 -28 -6 -50 70 -87 119 -59 150 -115 111 -202 -16 -37 -29 -51 -63 -66 -63 -29 -146 -26 -219 6 -33 15 -59 29 -59 31 0 2 12 24 26 48 l25 44 46 -25 c53 -28 104 -31 127 -8 33 33 16 54 -82 103 -96 48 -125 113 -84 191 22 42 90 80 142 80 20 0 57 -7 83 -16z m352 -135 l90 -141 3 141 3 141 54 0 55 0 0 -235 0 -235 -54 0 -54 0 -89 139 c-48 77 -92 140 -96 140 -4 1 -7 -62 -5 -139 l3 -140 -55 0 -55 0 3 235 3 235 52 0 52 0 90 -141z m575 96 l0 -45 -80 0 -80 0 0 -50 0 -50 75 0 75 0 0 -45 0 -45 -75 0 -75 0 0 -50 0 -50 80 0 80 0 0 -45 0 -45 -135 0 -135 0 0 235 0 235 135 0 135 0 0 -45z m423 -172 c47 -120 89 -226 93 -236 6 -16 1 -18 -52 -15 l-59 3 -15 43 -14 42 -92 0 -92 0 -14 -42 -15 -43 -60 -3 -60 -3 95 236 95 235 52 0 51 0 87 -217z m257 127 c0 -49 3 -90 8 -89 4 0 40 40 80 90 l74 89 65 0 c62 0 65 -1 51 -17 -8 -10 -49 -59 -91 -109 -42 -50 -77 -96 -77 -101 0 -6 7 -16 15 -23 8 -6 55 -59 105 -116 l91 -104 -74 0 -75 0 -84 96 -83 97 -3 -97 -3 -96 -54 0 -55 0 0 235 0 235 55 0 55 0 0 -90z m650 45 l0 -44 -82 -3 -83 -3 -3 -47 -3 -48 80 0 81 0 0 -45 0 -44 -77 -3 -78 -3 -3 -47 -3 -48 85 0 86 0 0 -45 0 -45 -140 0 -140 0 0 235 0 235 140 0 140 0 0 -45z m339 27 c87 -47 94 -193 11 -240 -16 -9 -30 -19 -30 -22 0 -3 28 -40 63 -81 34 -42 68 -83 76 -92 12 -16 8 -17 -56 -17 l-69 0 -70 92 -69 91 -3 -91 -3 -92 -54 0 -55 0 0 228 c0 126 3 232 7 235 3 4 54 7 112 7 84 0 114 -4 140 -18z m-3229 -128 c63 -3 122 -10 131 -15 40 -20 51 -149 18 -215 -55 -115 -213 -114 -273 1 -16 31 -22 63 -24 143 -4 97 -3 104 15 99 10 -3 70 -9 133 -13z"/>
<path d="M1732 1375 c-12 -31 -22 -61 -22 -66 0 -5 22 -9 50 -9 l50 0 -21 52 c-33 84 -34 85 -57 23z"/>
<path d="M2909 1467 c-57 -38 -75 -127 -40 -195 35 -68 125 -85 183 -33 27 24 32 36 36 88 5 77 -17 129 -64 149 -47 20 -76 17 -115 -9z"/>
<path d="M2588 745 l-26 -65 49 0 c27 0 49 3 49 8 0 7 -40 115 -44 119 -2 2 -14 -26 -28 -62z"/>
<path d="M3850 810 c0 -59 0 -60 29 -60 39 0 74 30 74 63 0 40 -20 57 -64 57 l-39 0 0 -60z"/>
</g>
</svg>